<svg width="24" height="24" viewBox="0 0 24 24" fill="none" xmlns="http://www.w3.org/2000/svg">
<g clip-path="url(#clip0_6_3270)">
<path d="M12 2C17.523 2 22 6.477 22 12C22 17.523 17.523 22 12 22C10.1782 22.0028 8.39054 21.5054 6.83201 20.562L3.80001 21.454C3.62593 21.5052 3.44126 21.5086 3.26543 21.4638C3.08959 21.4189 2.92908 21.3276 2.80077 21.1992C2.67246 21.0709 2.58108 20.9104 2.53625 20.7346C2.49142 20.5587 2.49479 20.3741 2.54601 20.2L3.43801 17.168C2.49497 15.6093 1.99759 13.8218 2.00001 12C2.00001 6.477 6.47701 2 12 2ZM12 4C10.5676 3.99974 9.16147 4.38406 7.92834 5.11281C6.69521 5.84157 5.68036 6.88804 4.98977 8.14294C4.29918 9.39784 3.95817 10.8151 4.00237 12.2468C4.04656 13.6785 4.47433 15.0721 5.24101 16.282C5.46801 16.639 5.54601 17.089 5.41801 17.522L4.97701 19.023L6.47801 18.582C6.91101 18.454 7.36101 18.532 7.71801 18.759C8.76634 19.4228 9.9547 19.8336 11.1892 19.959C12.4236 20.0844 13.6703 19.921 14.8307 19.4816C15.9911 19.0422 17.0334 18.3389 17.8752 17.4273C18.717 16.5157 19.3352 15.4208 19.6809 14.2291C20.0266 13.0374 20.0904 11.7817 19.8673 10.5611C19.6441 9.34053 19.14 8.1886 18.395 7.19638C17.65 6.20415 16.6843 5.39883 15.5744 4.84408C14.4645 4.28933 13.2408 4.00036 12 4Z" fill="#1E293B"/>
</g>
<defs>
<clipPath id="clip0_6_3270">
<rect width="24" height="24" fill="white"/>
</clipPath>
</defs>
</svg>
