<svg width="24" height="24" viewBox="0 0 24 24" fill="none" xmlns="http://www.w3.org/2000/svg">
<g clip-path="url(#clip0_2_11493)">
<path d="M4.33993 2.92993L2.92993 4.33993L7.28993 8.69993L6.99993 8.99993H2.99993V14.9999H6.99993L11.9999 19.9999V13.4099L16.1799 17.5899C15.5299 18.0799 14.7999 18.4699 13.9999 18.6999V20.7599C15.3399 20.4599 16.5699 19.8399 17.6099 19.0099L19.6599 21.0599L21.0699 19.6499L4.33993 2.92993ZM9.99993 15.1699L7.82993 12.9999H4.99993V10.9999H7.82993L8.70993 10.1199L9.99993 11.4099V15.1699ZM18.9999 11.9999C18.9999 12.8199 18.8499 13.6099 18.5899 14.3399L20.1199 15.8699C20.6799 14.6999 20.9999 13.3899 20.9999 11.9999C20.9999 7.71993 18.0099 4.13993 13.9999 3.22993V5.28993C16.8899 6.14993 18.9999 8.82993 18.9999 11.9999ZM11.9999 3.99993L10.1199 5.87993L11.9999 7.75993V3.99993ZM16.4999 11.9999C16.4999 10.2299 15.4799 8.70993 13.9999 7.96993V9.75993L16.4799 12.2399C16.4899 12.1599 16.4999 12.0799 16.4999 11.9999Z" fill="#323232"/>
</g>
<defs>
<clipPath id="clip0_2_11493">
<rect width="24" height="24" fill="white"/>
</clipPath>
</defs>
</svg>
