<svg width="28" height="28" viewBox="0 0 28 28" fill="none" xmlns="http://www.w3.org/2000/svg">
<path d="M20.3 17.325V6.41663C20.3 4.72497 18.9583 3.3833 17.2666 3.3833H6.41663C4.72497 3.3833 3.3833 4.72497 3.3833 6.41663V17.325C3.3833 19.0166 4.72497 20.3583 6.41663 20.3583H17.325C18.9583 20.3 20.3 18.9583 20.3 17.325ZM22.8666 8.74997V18.1416C22.8666 20.7666 20.7083 22.925 18.0833 22.925H8.69163C8.34163 22.925 8.16663 23.3333 8.39997 23.5666C8.9833 24.2083 9.79997 24.6166 10.7916 24.6166H18.6083C21.9333 24.6166 24.6166 21.9333 24.6166 18.6083V10.7916C24.6166 9.8583 24.2083 8.9833 23.5666 8.39997C23.275 8.16663 22.8666 8.39997 22.8666 8.74997Z" fill="white"/>
</svg>
